<mxfile host="Electron" modified="2023-09-16T10:04:03.121Z" agent="Mozilla/5.0 (Windows NT 10.0; Win64; x64) AppleWebKit/537.36 (KHTML, like Gecko) draw.io/21.7.5 Chrome/114.0.5735.289 Electron/25.8.1 Safari/537.36" etag="XUXrbGnSMvfA5zX9E5pn" version="21.7.5" type="device">
  <diagram name="Stacks" id="cmYec623V-D8ZxnN9g_8">
    <mxGraphModel dx="3434" dy="1636" grid="0" gridSize="10" guides="1" tooltips="1" connect="1" arrows="1" fold="1" page="0" pageScale="1" pageWidth="850" pageHeight="1100" background="none" math="0" shadow="1">
      <root>
        <mxCell id="0" />
        <mxCell id="1" parent="0" />
        <mxCell id="hPEgjXKIdbcl75uE92qY-1" style="edgeStyle=orthogonalEdgeStyle;rounded=0;orthogonalLoop=1;jettySize=auto;html=1;" parent="1" source="hPEgjXKIdbcl75uE92qY-2" target="hPEgjXKIdbcl75uE92qY-3" edge="1">
          <mxGeometry relative="1" as="geometry" />
        </mxCell>
        <UserObject label="&lt;p style=&quot;line-height: 260%;&quot;&gt;&lt;b&gt;&lt;font data-font-src=&quot;https://fonts.googleapis.com/css?family=Roboto&quot; face=&quot;Roboto&quot; style=&quot;font-size: 18px;&quot;&gt;DATA STRUCTURE AND ALGORITHM&lt;/font&gt;&lt;/b&gt;&lt;/p&gt;" link="https://github.com/SanjeetDutt/NOTES/blob/master/draw_io/DataStructureAndAlgo.drawio" linkTarget="_blank" id="hPEgjXKIdbcl75uE92qY-2">
          <mxCell style="rounded=1;whiteSpace=wrap;html=1;fillColor=#d5e8d4;strokeColor=none;shadow=1;treeFolding=1;editable=1;movable=1;resizable=1;rotatable=1;deletable=1;locked=0;connectable=1;" parent="1" vertex="1">
            <mxGeometry x="-1855" y="-168" width="197" height="94" as="geometry" />
          </mxCell>
        </UserObject>
        <mxCell id="yeEgzAtwvRAnYoXG2_5d-1" style="edgeStyle=orthogonalEdgeStyle;rounded=0;orthogonalLoop=1;jettySize=auto;html=1;" edge="1" parent="1" source="hPEgjXKIdbcl75uE92qY-3" target="SspjGxPzmLwflcgw0knG-3">
          <mxGeometry relative="1" as="geometry" />
        </mxCell>
        <mxCell id="hPEgjXKIdbcl75uE92qY-3" value="&lt;p style=&quot;line-height: 142%;&quot;&gt;&lt;b&gt;&lt;font data-font-src=&quot;https://fonts.googleapis.com/css?family=Roboto&quot; face=&quot;Roboto&quot; style=&quot;font-size: 15px;&quot;&gt;Stacks&lt;/font&gt;&lt;/b&gt;&lt;/p&gt;" style="rounded=1;whiteSpace=wrap;html=1;fillColor=#dae8fc;strokeColor=none;shadow=1;treeFolding=0;movable=1;resizable=1;rotatable=1;deletable=1;editable=1;locked=0;connectable=1;expand=1;recursiveResize=1;" parent="1" vertex="1">
          <mxGeometry x="-1607" y="-168" width="129" height="94" as="geometry" />
        </mxCell>
        <mxCell id="SspjGxPzmLwflcgw0knG-8" style="edgeStyle=orthogonalEdgeStyle;rounded=0;orthogonalLoop=1;jettySize=auto;html=1;" parent="1" source="SspjGxPzmLwflcgw0knG-3" target="SspjGxPzmLwflcgw0knG-6" edge="1">
          <mxGeometry relative="1" as="geometry">
            <Array as="points">
              <mxPoint x="-1058" y="-208" />
              <mxPoint x="-1058" y="-481" />
            </Array>
          </mxGeometry>
        </mxCell>
        <mxCell id="paEM04nc0d6yQ9ku6Cox-6" style="edgeStyle=orthogonalEdgeStyle;rounded=0;orthogonalLoop=1;jettySize=auto;html=1;" parent="1" source="SspjGxPzmLwflcgw0knG-3" target="paEM04nc0d6yQ9ku6Cox-1" edge="1">
          <mxGeometry relative="1" as="geometry" />
        </mxCell>
        <mxCell id="paEM04nc0d6yQ9ku6Cox-9" style="edgeStyle=orthogonalEdgeStyle;rounded=0;orthogonalLoop=1;jettySize=auto;html=1;" parent="1" source="SspjGxPzmLwflcgw0knG-3" target="paEM04nc0d6yQ9ku6Cox-8" edge="1">
          <mxGeometry relative="1" as="geometry">
            <Array as="points">
              <mxPoint x="-1044" y="-208" />
              <mxPoint x="-1044" y="-79" />
            </Array>
          </mxGeometry>
        </mxCell>
        <mxCell id="SspjGxPzmLwflcgw0knG-3" value="Definition" style="swimlane;whiteSpace=wrap;html=1;fillColor=#b1ddf0;strokeColor=#10739e;" parent="1" vertex="1">
          <mxGeometry x="-1352" y="-309" width="254" height="202" as="geometry" />
        </mxCell>
        <mxCell id="SspjGxPzmLwflcgw0knG-4" value="Works on the concept of&lt;br style=&quot;border-color: var(--border-color); color: rgb(51, 51, 51);&quot;&gt;&lt;span style=&quot;border-color: var(--border-color); color: rgb(51, 51, 51);&quot;&gt;&lt;span style=&quot;white-space: pre;&quot;&gt;&amp;nbsp;&amp;nbsp;&amp;nbsp;&amp;nbsp;&lt;/span&gt;&lt;/span&gt;&lt;span style=&quot;color: rgb(51, 51, 51);&quot;&gt;Last in First out&amp;nbsp;&lt;/span&gt;&lt;br style=&quot;border-color: var(--border-color); color: rgb(51, 51, 51);&quot;&gt;&lt;span style=&quot;border-color: var(--border-color); color: rgb(51, 51, 51);&quot;&gt;&lt;span style=&quot;white-space: pre;&quot;&gt;&amp;nbsp;&amp;nbsp;&amp;nbsp;&amp;nbsp;&lt;/span&gt;&lt;/span&gt;&lt;span style=&quot;color: rgb(51, 51, 51);&quot;&gt;First in Last out&lt;/span&gt;" style="text;html=1;align=left;verticalAlign=middle;resizable=0;points=[];autosize=1;strokeColor=none;fillColor=none;" parent="SspjGxPzmLwflcgw0knG-3" vertex="1">
          <mxGeometry x="9" y="30" width="147" height="55" as="geometry" />
        </mxCell>
        <mxCell id="SspjGxPzmLwflcgw0knG-2" value="" style="shape=image;verticalLabelPosition=bottom;labelBackgroundColor=default;verticalAlign=top;aspect=fixed;imageAspect=0;image=data:image/png,iVBORw0KGgoAAAANSUhEUgAAAZsAAADtCAYAAABplNiQAAAAAXNSR0IArs4c6QAAAARnQU1BAACxjwv8YQUAAAAJcEhZcwAAEnQAABJ0Ad5mH3gAADHhSURBVHhe7d0HYFRVvgbwfyaZzCSTZNJDqNKVqiIKYgMF26IuYsNedtXdfW/7um7T1dW1bXf17brNtRdsWLEhiAIqCtIRlBrSe5lMyrvfuXNnbkICCZk7d2by/d7mZQKYBDJzv3vO+Z//SWjXCBERkYUcgfdERESWYdgQEZHlGDZERGQ5hg0REVmOYUNERJZj2BARkeUYNkREZDmGDRERWY5hQ0RElmPYEBGR5Rg2RERkOYYNERFZjmFDRESWY9gQEZHlGDZERGQ5hg0REVmOYUNERJZj2BARkeUYNkREZDmGDRERWY5hQ0RElmPYEBGR5Rg2RERkOYYNERFZjmFDRLZqb28PPKJ4lqD9oPmTJqKIaGtrl69WN8mudT7Zs8knVftapK1FJNEpMnCsS0YemyLjZ6ZKQkJC4L+geMGwIaKIQLC8cX+FlH7lD/xK1yac5pFTrsoMfETxgmFD1E/t+6JZPn21VqqKWrTRhEfGz/JIYpI1I4ra8hZ58mcl4qsPXW7c6Q7JH+4UpztBmurapGhzs7S16r937YMDJCU9Uf+A4gLDhqifeu72UtmrXeDNMHt1zHnpMnZGqmQOSAr86qFprG2VV/9YIc0NbWpU0xoY0AyZ6JIZl3glZ0hSh+kyBN/yx2vU43m/yJWBh7vUY4oPDJt+qLmxTRqq29R7Xz3et4u/qV2am9rUnWWido1xJCaou1yH9jgtO1G8BUmS6nVwLj2OrH65Vj54Ur+4d2X40W6ZscB7yKFTtMUnC28rC3ykyzvMKRfclicOx/7Po/cerpLP36xXjy+8PU8b9SSrx6Sr2OOX4m3N6vU4aJyry3/DaMawiVP4sVYXt8reTT4p2+mX2rLWwFuL+BoO7UfudCVIwahkGardmY6eliLpuX2786VD19qi3RxoNwu4UVDvtZ9p8GNtJIH3ba3t2vNA//PGe9wrJDjwPkE9bqhplTWv6xf47px0hVcmzUkLfNRzGM08+qPiwEe6r2sjlkFdjFi+/LRRXtNGQbjZSclwyNV/GaBueHoDf/+tKxql9Eu/tPjbJbMwScafkqp9vtiejmtpbpd3/1Upm99vDPyKyMTZHjn5ytha12LYxBGMTLZ+2Ci71/tUyNRXtQV+xxoDRifL4SekyhEnpUqiM7busqId1jCqi1ukSnurKWlRNwp1FdpbuXbDoL33a2ESSef/KlcKx/RuWgvf939/EAqbgWOTVdh0Hh1v/6RRXv+zHjRwyjWZMmGWR/+gh7D+tPiBCu1rBj5JgCfTIZfeUyDJqdbt8sAIbv27DWrk4fY41FrUqGNTZPgUd69nAtSNQlO7Gr0ALs+v/6VCtq1qUh8bHNpvf/OhgZKUHDuvO4ZNHGjE3enievl8cd0BRy2p2gsvIy9JMnITxaM9mfHCcGlvySkJ4sSby6GexLiTatXuDPFevWmPsYhctKVZVRK1d8qwtJxEOXZeugqe3t6N9md46dVq4VGyzS/lu/1SrY0EEC54f6ijTyvgerngnnzJKnQGfqVnUBTw8Hf1sMENyazrMrVRlf78wMhs+8eN8sb9lepjwzhtJDJTCxvjz/XErnVN8tI95fs9Lw1n/yBbhh+dEvgovBAOf/9mUeCjjhCuJ1+dKTmD9X83vJbwM8frrCv4XE/+vETdWJx7c64MHueSnZ9rf7e7y9XvYxoboYnXIlx2X0Gf19UiiWETw/Dk/fDpaln3dn1w8dXgyXKo6YqBR7ikUBuBYM0lHHdBGD1hn8SWDxplx9qmDi/wrIFJasplyAR34FfIzKddTDDnrr/p8++NNT0ffWIvCu54Ee6p3kRxpeDik6DdLJjeazcNxntVWab/L/D/NNqrHa94/U27+GlfHo8bq9tkyX+q1MjJcNb3stVoI1P7ueYO6V3QQH1Vq/z7O/vU46lfT5fjzs9Qjz97vU7ef7RaPe4MNy3jZnokLatnU18Y7T1xc3Gwym3kVLfMuNQryx+rlm0f6aOBg63/YBZg0/sNaroZ/75jpqfKYUe5e/R68fva5G/XhsIGwWy+oqZrP6uLf5uvbtQW/7VC3bhNPS9de9P/LcyKtzfLM78qVY+PvzhDjv5auiy8rVT9t3Dmd7Nl6cNVasYCN4XX/3OgZdWDVmDYxCjcNWKOu+TLUMrgAoPyVZSxegsSez2E7636ylb5+MVaWf9ufXAKBEYdlyInXObt8QUjXuFChClNbGDcu6lZXcwOBqNP3BjgjlW9194y8hMlXRuNutPCX6CBEeyaN+rkI+3naEzNIdTm/SJPCkb2bYEeU4H/uEG/EE8+wyPHX+SVt/9RKVuWh9YeuoK/4hEnp2oXXK/6Ox/I2w9Vysb3GtTjEce45bTrs+Tjl2pl9aI69Wv4d7xUG5UZIyUUxKx9s07yhiWrmyMUJexc61O/Z4Yp4nNvypFELXC++rRJveH7Gjk1RYZOCt1MYUT6xE9LAh/pIYHCivcerlY/exh7QopU7mnp8Fqd860sGXN8auAj3RcrG9WUGWAUiGm4f96ohzUgYIzXGUaAs67L0j+IEQybGFSnXeSf+VWJdrHX74oxvD56rnZHqL1AcVcbaTWlLbLi6RrZ8mHoIoI77ZOuyFRTa/0J7rSNi9Ou9U37jTgNuHDlaKOFgpF4S5a84U4VLE53ZH5+GBVvXt4gnyyq7bDOgYvzaTdkyYBRfa8Ewyj479eF7vpxM4TCBTMUA0zRnruYCt64tEFVSRqw9oEpNVzgu4JR2MPf3xccXQ+d5JKirc0d1rPm/TJXdSYwvPy7cvWz6Qq+l6batuDIBKHRqH28T/ucZlPmpsl0LTgB/4ZvPhiaCjz6a2kqJHGj8bQ2SkHIAG4iGkxrqPi7XfG7jmtJHzxVHQzJ82/JVTcoHz61f7UgKvrO+1muuCxch7ICwyYGmV8wuAPD8NqTaf8oAu1H3vtPlVTs1l9ggDvaExZ4ezUHH2uwn2Szdre++f2GbnfH4w69cGyymsdX4aJdMLqbu7cSblTWvVWvpl4x8jBgYyWmdyafnha2Yg+syzx41d7ARx1lD0qS2Tdmaf8OoVDDn8fFe+XCGqmvCH1v6CiA6Vlzqe/uDT554c6OZdVmLk+CnHJ1poyeFrrZqdBGIY+bRiGGLO17man9Wfx8cLPw1M9LO/zbGFDFZwTbxXfkS+4wZ4e9QRhZnfrNrGAIfPRCjax8tlY9xvTgno0+FbbGc2TKOVpoXaiHFrx4V5kaBWMEc+0DhfLQ9R3XgvD9jTwmRSac6ompwgADwybG4Mf10DeL1JMWpZ0X3Z4XsbvhnsAFA1NreDNemKOnp6gLS6ztCzgQ/Bwwl752cb1a6DZPIxowOjhMuzs+7Ej3fhsYIw1l0O/+q0o2LWvosM6GC9vhJ6bKtAsy1DpQuD149Z7g6A6jOKznjZ2RIlkDu18DwqjLeA4ZRh7rljk3ZqsgxN/hrb91LCwwIMQwjYvQRPGLAX//535Ttt8oBaOhM76T3WGEsejeMtmxJjS1hj+DKcDqkhZ57U/6NNf0CzO0sEiXVc/VaG/694n9QwUjQuHZ4fd+rU9LoggAFXoIM0xXXn7fALUGh+/vn98qUmtP6Kpw5veyg8UVcKjl59Ek8VZN4HFYYTF0j3b38eXqRi3Rm9UPuXxXi7o74ObAQ4d5/7Vv6PsiMMwfdVx0TVMhUFBFg+IEXIRbtUEORjqYjsBFN9YhZLZ/3CSLH6iUT16qk4o9LcFpF1w88DPBVAqmfyafkaamcHARt/v5vlcLxmWPVGt/Af1jjLSOPDNN5nwrW3ULsOqGBSXBuDHCSO7C2/Nl8HjXQdvQoKIRfw7TjF991qSCHNNRRVt9qqR4+ePVqmKrs/GzUmXcyR7JHuxUF22sa6JyC3tvsDbT1agTZdFJnUaY5mkxtXZzc654shLV7MHql/VpLiz8j5iSoqoJ8XyAIfieA5VnaDiKdRtMy8GJl3nVYj7C0qG9xzoRQr+xrlWNVr78tEk2LdWnoUdPT5XR2usaf95Y98nIT4r510/YwwYVSm/9X6Us1f6hUbG063NfcJEUT5z17zTI9o8a1YsP89QMnd7B9AfmcuGos9MOqUooElBiPUx7cWz9sEHd2ZZs96s7u1gq1TRDyOBud/FfK2WNFvbmtYXcoU41BXXa9dlyxEketfgcTaNNcGt37iXaxRZTPNPmZ6jpHix0W73Gt0X7+WNtEV+nt3fm2YOcqipsh3bdQGDVlraqf3dc6FHNlz/CqUYIxkgNmzm/WNWoRj4b3mtQhQPYCInrT1dVf8Z6UWfGaARO/58syQhsXsbUFda48PVww4yQRoHFhiV6gQI2jxqBgIBb/7b+6/g+J80O/d0RvHhdIBDLd+o34PgcxhrsjAUZ2t8xSd2ooEoOfw43bCgft2NNNlzCGjbLn6iW9/5TreY9DwQ/eAQPflAsk+2djLxEVfo4QrsbmjzHE9VhjTt6TCvgBQOYsx53ikeSYmwDKEbl2A+Cu1rzIi8uhDOvzZTpF2VoQeqK6nl03FGjWAObJbFOEqn9UCglRicBlPpixNFbeA6hWwVCCy2Vynb4ZfaN2Sq4cLOFizsCCF/jQDBdiOMLsP5jTJEddVaaGoV3hucpRk4IFEyfGf9WGK2sWqgHEaZIUbiAtSEERYuvXd1QYXMpbrjN08gnX5XZYdoQo39M9xkdAfZsaA4GDYIJJeLm1zVGQRjdYZYI3TtitUFp2NZstmmjFWM+EzA/iyEofrC4QOLODyGE0Q6GjMZwPtY2JlHvvfOPyuDdH17g6LcVCzAVjGogjCYNuAtF2emRZ6QdcN2Bwgu79LG5MUULgEt+m79fcQUq3zDVhtDBugj2swBGG978RDVKwhoO9v6gsABri3N/lNPlz7CpHp04GrQLu1uVn5thHQbTZjOvywyuz3S+9pnhbB50ROjqpnDj0npZ8u+q4JoWpjbP/WlOh6IJrOU8++tSFWSK9mkGHZ4s2KSKcniEE0ZBsSBsYbPkX1Wy7h39RTn3xzkybLJbjXQ+fSVQymdqd2GuJ+9PYYMXBJ5y0TbFghce5sFxIUU33nDf9eLF+8gP9qnpgCRXglz5x4KovjvDSwLtQZY+UtVhJNN5RzhFFkYWGC30dSOjcckL56wAZmpWPlsj5bv8ahSCG2z0L8O62IG+Dvaq4ea7XQuVEdpIqauqUrx+0M7HWL8xw1TgpfcWqG4g0S5sYfPMLSVqHhU716/+S6H6NezsRVEALjBX/3lAh+oQlMniZ2CugY9n2Pz17C2l6oKO/lCY148W6E316h/08P/aD3PU9FC4YVphxTN6iWjnks9ogkalmArGxcOAO07Mo6NqK5qnLcl+uHHDyCrczT8RtNs/apLNHzSoNSyj+hHNca+I8ps3Q9jiMHi3bnotoqEcpKTrPbjMVCuVfhI0gD0Yfh868+rzztEEa2cGvFisMEm7y8NGT0C5cFf7GOyGtaXHbirpEDSYBsHoGwv/DBo6GIy6rOgyjXUelHSf/f0cueavhXLezbly+neyVLl1rKzhhC1sUHeOQ5FOvCzU9tpYIAvXJrFDgX5DaGnxzK0l6s7aqovpwRhrFoDA6W+wjwHrHICF3k9fCVX82M3f1Kb2baCKEgu9kDM0Sebfkiczr806aMsUokjC8xGl4diwirWoWBG2VxHKWs+9KVfVwRvCeSOIeUtcFHo664dWFq/9qVw1tkMJZPEXfjWVs2HJgc/uAFQfvflghboAmRsT9hQWKfG1dqwJ3SEPnRwaxcXC/KoV9I12+pMC5cOYr7Ybpjef+mWpKpcFPGdx43TR7fmqwIWIwsPSqx6mzwAVIL2BQEHb8NKvmtVpgo/8cJ/84/oi+dt1RfLw94rVhbyhuvvPibYUz/y6JNj11QzrSt3BXCtCBtUfaD+CC9Cq57s/ybAzFAAgoHBgFEZRi+4tD15Qh5vWQdDcrz/CVKrR7Ra7xNH80U4oVMHNiNGyHTu55/0qV+0M51EJROFlbdhk6J8ejfFwIe4pHA374l3l8tQvStWxtThx0oCRBi7kaPmAksPOUF793B1lwd5K6XmJMk27UzWgB1RXMGp6SQsHhIxZdyMb9MPa8kGD7ESbfS0csbP/adMdMqDnEhrugbkhY6ztMwmniad5VMkmbHi3XjXxBPwbquaV2k1GJGANDRWRCD3Azn/0uyoc3X/WEYkiydKwMU6bg95MmXy5uuMFBwGB/lpYIENLEMDcOmrbjXJrA8qtjRYRaIx36d0FMmJKaFRROKbrqZFVz9fu1zcJ8HU7qyzSRk63lKqWJTi06YEr9sqTPysJ3iFjhzMW73DxMso0zWtF2GDWX2H9Dk0JARU1qwOl8RhloMEobjJwRLCVUNHzpqm31nHz09XZLVybIbKOpa8uNIo0GDtkewKtbQzYtIQ68tO/nS1n/E+2qsQ45lz9YgXY34OdtQYc7GXALl80z8vSvg/8tzjrAoFlhtbmT/y0OLgfyAw18ih37QwjK3NbdvMyEgLuojvz1eJdvTbKQudXNPZ7959VgT8hKqAwVYdDm/oTjCLWLq7TRjZJKpBh26pGVdZpdMcFK6v1sLtb9b4K/MxOutKrpvbiuSs1UTSwNGwGHeESh5Y32GeDo4gPBdpFmA/hUr2dLsiQWd8IVb0tf6JGu0vWrx75I0PVGZiCw8FGf7++SNYvqVeN+XDkrhnOvyg3tcQHnD2Bw42wt6JzuWu7dmFEewkwFrsNOK8D7f5RAICF58duKlYXUXMHWQNGUWil3p9sfK9elv63Wu3gRgNDQOsitLw3txvp7gyYvmpubJN3/6GFfiBoTrzc26FnFRFZJ6xhg0IAtGAw1mdwFOtl9xTIgrvzVdfS3sJ6x6BxXU97obvrmBn6KAXTVzgHA2Zfn73fpkSsGaEhKC78j/2kRJ67vTR494xOB2ZoRXLF7weoU/Q6Bw3+Xu8/Vh3cI4Id8WY4b8L4b9A08EAXTZykia7A/Ul3hYQIIDNjqjTccCKl0bcPPcJQHRctcLOEzsRv/70yuI5EFE/Cep7NU78oUW28sSaBCy/uINFiHpsG21rag49bA6MQ7KbHxRnvB45J1kYrWWqNY9F9ZerzoI/WUWeFpsw6Mx+GhLPH0S7d2NOD6TGcN2K8Yb+Nse8HMApZcHeBWlcyt89BwOHXHIjhQNa0ad+3T7srRoAYkCmd/+Uwirvu/wol2e1QU0OfvFSr/s64sGGjIKb84OwfZsvwo7o+fdAOW1c0qEaTgJFZdycj9hWean+9vOvDtMxOuNSrpjDD7fGfFqvuua5U7LoeEFUnHe78vEn1/oKujgwminVhfbWhdQJg4RdTTcY5NggOTFVhqgTTJ+g3hTdUjKHaCxdxVIEZR6jO/VGuXHN/4QGDBtBFFhVfgDLnh24oUneGGOXg6+GM8alfT5f5t+bJNX8doA4gMmBjZfE2fToMm1HRZgdQXIBRD84LR/M7vKHSzBw0WEg+7cb9z/9GKBmtzLHjF2sBaOeO8EIHWUNzpxFRf4Ebi28+pLcyOhCjZD6c0FTTOEF0+JSUqAoaMNqPgPkxUbwI6ysOpzGiHTia0KGCDCMWTIlgFIGLLcqQEQ44ThVnOpjfJs3BoUe9n2ozXzRQoYZzzLEAjHUBTJn9/RtF8sCVe+SfN+7rMF2D782oTMPnOP+Xeao1CYoaULLtydTesrVRTk6iWszG943iguMvzlBdZ9HaHCOZzvB37Yq5wV5loGqtP8J5HDf+e6Aq/OiK+ecSTkZnAOjuZ0RE1on5Y6ExCln7Zp0aSWxZ0SDNDQf/62AKTC0O9/GY1RXP1sjHL4SqqMZMT5E5384OfNQR5uEfun6vWsfBhfbC2/IDv2O/SE2jdfbv/y3qcNY8pjBnXJKh+pCFm/nfHyNZdLuIJphmffk+fRoNVZNdVUESxbKYDxszLLJiygsHGKHVN6bqMK2FKRSMtLCDHWdQjDk+JWw9hXAyIDZ3orz62HkZwTWjruBiYjR5nHCqR06+0qvdydt/l21X2GDNbf279aqjAtbnrG4o+NI9ZeogKrjoN3kdzg2xG8OG4l1chU20QxA+e2tpsNpo3i9zo6LztV1hc6iMMvfetpTB+uHC20tVEcpl9xaoKdJowbCheMewiTC0ZMH0G9awsNE0Gs4Uj+awQTDjlMadn/tU+XrFXr8qxABUPWItDScq4rhcBPfBOoyjShEL8B7T3q1owLCheMewoagMG0x9oqvDmtfr1DlAPYFqyCnnpqujDJJirNkpw4binf231USdYN8TOmeju7c5aNCxYdhklyrEwNuwI10d+pnhz654ukbtp0ELI95HEUUPjmwoqkY2aOHz0fOhCj9UqOGUz2FHulWJPKoOzbB5Fvu4cFQuRkE+UzXiMeely3Hnpwe7OkQzjmwo3nFkQ1GjQ9Bo+YAKtSt+X6Cq/FBF2DloAL+G38Ofuex3BTJ+VugijbL0Vc/VcoRDFAUYNhQVMGVmBA02y879UY7MWODtVQEFSqdnXpMl5/wkJ9hfDZ8Tn5uI7MWwIdthv83KZ/UO2Aias3+Qs1+D1N4YOsmtPocROGjAir1XRGQfhg3ZClNcSx+pDjY1PfUbWTJMC4u+Qjn07BtC3RzQBBXHQxCRPRg2ZKvtHzfJ7vX6rv6Bh+vdHcIFvexwmB1gQ+3WFdaeAEpE3WPYkK3QrkZJEDnpisywV45NvwgH4OmPNy7Tzzwioshj2JBt0B1gz8bAqGZMsuQODU+/OrOsQqcaMQGO4TZaBRlwxMXjNxXL078qkcZa9vYnsgrDhmyDNjTGaaZY1LcK1m8AXwuBY7Z9daNU7GlR5xbh/CUisgbDhmxjrNUA2v5bxfy5d5m+JuBUVUPnGbzlT1Srxp045ZWI+oZhQ7ZpCJxqCjhV1Srmz22cpGowyqPBvPcTp8qiN1vR5mZZvYj7dIj6imFDtvE3ha7uVjbONH/uzms2TtPIBus3OL6gfLdf3vtPVeBXteDpxyerEoULw4ZsYw4B49gAK5g/d2KnARQKE3AUNbz/WLU8cOVeeeKnJbJrXWi6LX9k9ByyRhSrGDZkG1dqKGzqKqyrBDN/7uTUjk95fHzkmQc+HtzKKT6i/oJhQ7YpHGNauF+nH5dthZ2mzz1w7P6jlOMvzpA5386SCbM8MurYFJl8BrpMh743bz7DhqivGDZkm8HjtQt6YHCzc23HKrFwwgmfBvU1O8FG0jHTU+WUazLljP/NlhMvy5TMAaGAySxk2BD1FcOGbIODzwpG6OVgKEm2YlMljoE2wiZf+1roDN0TNSWh7yWzgGFD1FcMG7IV+pdBi69dPnmpTj0Opw+frgme9jl6Ws/7riW59CFX9qAkSXSG1paI6NAwbMhWE071SGqm/jTESZulO8K3gbLky2bZsETvh+YtSJRJsw9cCGB20uVeOeFSr5zzk9zArxBRXzBsyFZOl0MdkgbYVPnq7yukprTvddD4HK/9qSLwkah1mN6MUFIyElWVWlpOz6bdiOjAGDZkuzHTQ0cB1Ja3yvO/KetT4OC/ff6OMqkt09ddRk51y2FHWdd7jYgOjmFDtkM12JxvZcvQSXqlGALn2VtLZfPyBnW4Wm98ubpRFv66NBg0Qye6ZPaNoUPUiMgeDBuKCugmcNb3coKB01DdJm8+WCkLbytTDTtbW7oPHfze7g0+efHuMnnl9xVSX6X3P0PQnPX9HEtb4RBRzyRod469u3WkuLN1RYO8cX+lenzmd7Nl5NTwnZbZW+hdtnJhjSoWaDNVQjtdCWqPzIDRyZKcmiD4P19Dm+zb2qzCyKg4M0yc7ZEZl3hjJmi++qxJXr6vXD0+7fosOfzEVPWYKF4wbCiqwsZQudcvyx6t7vVmz8KxyTLjYq8KpVjCsKF4x2k0ikpZA50y98c5Mv/WPJn69XQZMEoLj64GKdqvFYxyqj8z/5Y8mfeL3JgLGqL+gCMbisqRTVea6tukel+LPmWm/c/pThDvgCRxe2L/nokjG4p3HNlQzECoFIxMlsHjXGr9Bo/jIWiI+gO+UikqoVAAC/8of173dr2se6dePd6z0Setfg7GiWINp9EoaqbRKvb4ZceaJtn5uU/2bkKoBH6jE1SYDToiWYZOcsthR7rFGweNMjmNRvGOIxuyHSrPXv1juTx+U4ksf7xGdWnuLmgAo54da3yy7JFqeeRHxbLkP1WWdIwmovDhyIZsG9lgOuzjl2rlE+3NvKfGkYiD1bSRy0S3ZA1KkmS3fk/U3NQm5Tv9auSD/TXmZ67LkyDTLsiQ8bM84nDE3iZOjmwo3jFsyJawQXC8fG+57N0c6vKcO8wpU89LlyETXcGA6Q42dOICveKZGqktDSUVOhCgE0GsdQ1g2FC84zQaRRyCZpEpaFypCXLqNzPlotvzVNAdLGjAleqQscenyqV3F8hx89MlUT+DTW0Cfe1P5WqqjYiiB8OGIkoFzT3lUhQIGhy5fMldBXLESR5JOITpL4xgpp6XIQu0z2EcB4D1HAYOUXRh2FBEvffvKinaEgqar/8sV9Ky+35mDCrS5v1c+1ymwFn2aJV6TET2Y9hQxBRtwb6ZRvU4Iz9RBY0nK3yHk2Xk64HjydKf1uvf0fflEJH9GDYUEW1t7bL0v9WBj0RmXpMZ1qAxIHBmXZcV+Ehk6SNV0q59bSKyF8OGImLjew1S+pW+eQYnZw6ZYN3JmcMmu2XksfrnL9/ZIltX6qMpIrIPw4YiAmEDjiSRGQu86rGVps3PUB2hAW1uiMheDBuynK++TfZt04sChmojmow869vL4IgCdSyBZs+G5m77qWGb2VefNsnrf6mQhbeXqtM+t3zQ++OoiejAGDZkuV3rfepIADCOfY4EHAsNKIEu2hraPGr2yUt18vLvyuWLlY2qHButchY/UClfftIU+BNEFA4MG7Lcrs9DF240z4wUtLsx7DR9D4ba8hbVgcCQmhl6OaxZXBd4REThwLAhy5Xt0gsDUjIc4i0IfwVad/JHOoOdBcp27N/Zs6GqLfBI5KQrvHLN/YWqFxvUFLOxJ1E4MWzIcv4mfQ7NneaQhITI9SxDQ060tQF1umcn+cOdMv2iDJk0xyPjZ3pk1XM1UrmnRf1eojP2mnkSRTOGDVnOWJxPTIr8Bdz4ml0VCKA9zpS56dqoJlOt6ax6rjbwOyJV+1pUYQMRhQfDhixndGBuseGETX+gP9rBukB7Mh3qaAOzDe/VBx4RUV8xbMhyyYGprIaqVtVJIFJQhWaMTpJTDvxUR6n0Jb/Nl1nXZQZ+Be11uq5gI6LeY9iQ5Yz9Ls2N7cEuApGAo6XbAzNhA0br38OBIHBGT0sJjnCM/5aI+o5hQ5Yz9rsA9rFECk70NOB72Lm2SR7+3j555fflaooMjUHLd/lVpdoeLZg+e61Onr+zLHhq6KBxkdsTRBTvGDZkucIxLtPhZpHbLGl8LXe6Q/KGOdVpmLVlrfLl6iZ556EqWXhbmTxxc4k8+fMSef43ZfL+Y9VSsl0feeGogrEzInM8NlF/wLAhy2FxftAR+igBp3OW7rB+LWTHmiapCJQxD5ngUpVnE0/zqHLng8EoCEcVpKRHbk8QUbxj2FBETDjVE3gk8sGTNZb2HmttaZdlj4aOM5h8epp6jzWZC36dJxffma+Oocb+Gpz1j7cJWhDNvDZTLr0nX865KVcdVUBE4cOwoYgYfrQ7uEiPdZutK6xr+792cZ1UFemjmiNOSg0WKABGOLlDneoYauyvOe36LPV2ylWZamMnAomIwo9hQxGBzgEnX+XV3usfL/lXlRQHOkGH0+4NvmC/M2dKguoQQET2Y9hQxOQNS5Yp56SrxyiDfvGusrAGzu71Pll0b5m0BqqrcaZNqpfrLkTRgGFDEXXc+ekyYZa+fmMEDkKir3AmzaL7QkFz9Nw0tSZDRNGBYUMRhTUTTKeZA+eF35bJG/dXqJb/vVVf1Spv/a1SnUljBM0ULWimX5gR0aafRHRgDBuKOCNwzCMPFAw89uMSWf5Etdps2dbafbUaqs32bPTJsker5JEfFMumZaFjn485N12mMWiIok5CO8+/7fe2rmjQRhaV6vGZ382WkVMjt5kRO/eXPlwl5bs6jmqwuD9kvEuyBznF6daCQ3uW4pgA7PbfrQVNS6cjA3BOzsxrs2RwjO76x4bTl+8rV49RHYdybKJ4wrAhW8MGMIpZ/069rHi2Rnz1vXs64kA2jGYwLRfLZ9AwbCjecRqNbOdITJCJs9Pkmr8Wyrxf5KrwyB/R9X4XzI5hv86x89Jl/i15cvVfBqhNmzzsjCi6cWRDto9suoPjARpr26S5sU0StNsip8shqdpIxjiyIJ5wZEPxjiMbilouj0MyByRJ/vBktUcHj+MxaIj6A75yiYjIcgwbIiKyHMOGiIgsx7ChmIBOAeijhkabeMPjxtrAkZpEFPVYjUZRWY3W6m9XGz53rvXJrs+bpHx3161s8g5zqsPOhkx0S+GYZElMis0SaFajUbzjyIaiitrg+W69/PeH++Slu8vls9fqug0aKP3KL58sqpMX7iyTJ39WIju1YCKi6MOwoaiBVjTP3loq7/6zSuor2gK/KuJOc8jo6Sly/CUZcvLVXvV2/MUZMvJYtySnhkYylXtbVEC98odyqS7pfVNPIrIOp9EoKqbRdq5tkpd/Xy5tgYxwJIpMPM0jY09IlbxhTtW8syttbe1Sss0v696p79CQE/3Uzr0pN3g6aLTjNBrFO45syHY7OgXN0Ekuuey+Ajnx8ky1obO7oAGH9nsIFFyg59+aF2xz429qlxfvKZN9W8N/GigR9R7DhmyFNZZXTEEz9evpMvfHOZKRl6T/Qi8MGJUsF2iBgxER+HE4291a4HzBwCGyG8OGbONraJM3H6zsEDTHnd+3s2gwCjrpSm8ocLQRzut/rlD91YjIPgwbss1Hz9dKY40eApPP8KigCQeEFQLHWPeoq2iVlc/WqMdEZA+GDdmiYo9f1rxRpx57sh0ybX54gsagAudyr3iy9Kf452/VSw0r1Ihsw7AhW6x6rlbaAzNbJyzwitMd/qciOkRPu0APsbZWkdWv6uFGRJHHsKGIw8ZNlDpDztAkGXWcdaXWKJ1Oy05Uj3d82iQHqvSvKW2R5+8slYe/v09e/0uF1JZxJEQULgwbijj0NWtu1C/6w49K6VNBwMGgNHrYZJd6XFveKtXFXfdTa29rl9f+VCF7NjRLbWmrfLGyURajeEH7dSLqO4YNRdzOz32BRyJDJupBYCX0TTN0186mpqxVtb4xK9rcLEVbWDZNFA4MG4o44wKelJyg9sZYbcj4UKB1Fx5VRaEps4JR+sZQMP86ER06hg1FnLHnJcXriEiXZhwv7XTpX6e5oev9Nqna92Io/iI0wskdGgoeIjp0DBuKuJZmfR0kyWl90BgStVEUGF+7s9xhTjnm3PQOjT1RWJA3nGFDFA4MG4o4TJ9Biz9yi++tRsAFvnZnKFJA2BiVazD9wgxVYEBEfcewoYhLTtGfdo3VbdLaYn3goC2O36d/HeNrd4aS6KX/rZKKwNk5g8e7ZMwM+w+RI4oXDBuKOKPtP6a0UAZttd3rQ9Vv3R058OmrdbJhiX5EQUqGQ2bfkBUsyUYQ1Za3yPaPG9XBbjhFlIh6h2FDETdsUqg6DMc+W81c7owjpDsr2+WXD58K9U4bc3yKfPlpk6x4tkYW3Vsm//r2Pnn4u8Xy6h8r1MFuHz7NPmtEvcWwoYjLH5EszhR91IBDw6w8vw/dCnas0QMtPSdRMgv3P7qgaLMv2DoH1rxeL0v+VSUfv1Cr/lujWajBmx9a1yGinmHYUMSh3NkYYeAoaCtHN+vfqZe6cr1rwLAj3V12Kygc4xJHN8fnJDoRjk4Zd0qqnHJNplx0R55MCBxfQEQ9x2OhyZZjoYu3N8szvypVj7MGJsnFd+RrF/bwVn411rbKoz8sFl9Du6pCu/TefG1003WqoC/aV582qUICjIYyBySpPTZe7X0kKtJ4LDTFO45syBYFI5Jl9HQ91Cr3tqj1kXDCPdTyx2tU0MCUc9K6DRrAyaCT5qTJlLnpMvW8DBk9LVULQSdLn4nChGFDtjnxMq+4ApsoP32lTj56PjyBg6B5/9Fq2bRMry5Lz0uUo85KV4+JyB4MG7JNqjdR5nw7WxyB9faVC2tV4PRlZhf/7bJHqmXNG/XqY7SpmXNjVrebOYkoMhg2ZKthk91y9g9yOgTOi3eVS8Xujh2Ye6JqX4u8cGeZrF0cCppzbspRBQBEZC+GDdmuc+BgE+YTN5eoHf2oVjvQSAfnzaDYYMm/q+SxnxTLno36JlEGDVF0YTUa2VKN1hVsrlymBYwRGAbs6EepdN5hyeJ069Nh6BxdvM2vgqmpruM+mMIxyTLruky1wB8rWI1G8Y5hQ1ETNoCn47ZVTfL+Y9VSV9H1qZrdSc9NlOPmZ8jY41MkIcaqyBg2FO84jUZRBZsuRx2XIpfdVyBzf5wjk8/wSNag7kuWsRfmqLPT5Nyf5qj/5vATUmMuaIj6A45sKKpGNt3BKAfNMP1N7VogYU3GIRn5iaqiLR5wZEPxjiMbigk4Z6ZwtEuGTnTLkAlu1b05XoKGqD9g2BARkeUYNkREZDmu2VBMrNlUF7eoc2l2fu6T0i/94m9qU8dKJzkTxOl2qEKBIRMxzeZSxwh01d05mnHNhuIdw4aiNmxwnDNO0NyyvEFqSnteBo1za3AA2pRz0rs9BjraMGwo3nEajaJOe1u7rH2zTv77/X3qALMOQaMNWDCKGTzeJYcdhWIBbPZ0qgo1Q215q3yyqE4e/VGxbHq/QX0+IrIXRzYUVSMblDfje9m3NdRFwJ3mkBHHuFUlGkIGH3fmq2+T3Rt8aqpt+8dNHU7XLBjllNk3ZKszaqIVRzYU7ziyoahRW9Yiz/+mLBg0OCXz2HnpcsUfCmTWdVlqs2dXQQMuj0OF5MxrsuTy3xXI0XPTgr3Wir/wa5+3VCqLet/ck4jCg2FDUQFB89wdZcEpM+yjWXBXgRY2Gb1ed8GfP/4iryy4u0CNhKC+qk1e0D4/OkMTUeQxbMh2dZWtKmhqA0GDgDjv5lzxFvRt2gvTZmh5gyk4QOBghFNdwsAhijSGDdkOp2qag+ZrP8wJ22FniUkJcvp3sjsEzlt/q2TRAFGEMWzIVns2+uSLlY3qcc7gpLAGjcEInIFjk9XHRZubZf27+pHRRBQZDBuyTVtruzogzXDSVZmWHd+MwJn1jSxVdAArF9ZIc1PHc3CIyDoMG7LNpmUNUr5LXz8ZPS1FBh1u7amaWMOZfEaaeozS6HVv6cdHE5H1GDZkmy9W6dNnCdqzcMYlXvXYakd/LV2SXProCftxiCgyGDZki1Z/u1qvAZQ5p+VE5rgAt8chg8fpI6h925rVZlAish7Dhmyxd7NPCxz9MZpnRlLw67WL6jpARNZj2JAt0L3ZgDY0kYTu0IadazmVRhQJDBuyhbGTH+s1ecMDJWIRgkIBV6q+bnOwjgKY7mPXAaK+Y9iQLfxN+qbKZHeCOBzWlDt3B2fdJKfqT33j++hKQ3Wr/ONbRap79JYPuC+HqC8YNmSLthb9Iu9IimzQGLDvBloD30dXKve2iL9R//1PFtWq90R0aBg2ZAuj/LilufuLvZX8zXoVmtPV/UsgIy9UIWfsByKiQ8OwIVu4TNNYOJEzkjCaaarVv2ZySvcjq/TcUCNQnIlDRIeOYUO2wN4aw54Ilx8XbWkOll2bv4+u4BRQaKjifhyivmDYkC3Me2vMZdCRgNM8DQcru07L1qfS6itb2SmaqA8YNmSLzMKkYNeASO912RUIt+TUBMkfeeDpMU8gbNpatdGN6ahpIuodhg3ZAuXHxugGp3PuWheZwCna4pPSr/Q5tCETXActuzZGNlBXrp+5Q0S9x7Ah24w72RN4JPLh0zWWT1O1aZ//vYerAx+JTDxV7wB9INmDAkUCWiY5AxV0RNR7DBuyDRbnhx+tr5mUbPfLunesbfm/YUmDlO3QRzUjj3WrU0EPZsSUFDnr+9lyzk9yJHswK9KIDhXDhmw1Y4E3eKDZB0/USPG2Zv2DMCvf7ZcPn9RHNfh6+Lo9hcCJdP82onjDsCFboU/ZcednqMd+X7u8eFdZ2AOnfJdfnr+jTHwN+jTdlLnpkmHaQ0NE1mPYkO2OOitNxs9MVY+bG8MbOCpo7iwLbuIcPT1Fjjk3XT0moshh2JDtEhwJcsrVmR0CZ+FtpfLBk9Xa40MrN0YxwGev1ckzt5QGg2aMFjSzb8gSRyIX+okijWFDUaFz4GBfy+qX6+TRHxfLxqX1Pe6hhlY02z5qlCduLpH3H6sO/ncImtMYNES2SWjXBB5TP7V1RYO8cX+lenzmd7Nl5NQU9dgOeDpuWd4oy7VRjblFDBb1Bx3ukqGT3DLoiGRxpzskKTlBWptFmurbZO8mn+xc65PdG33S4gs9pfFnpl2YIZPmeCJ+lEFvfPVZk7x8X7l6fNr1WXL4iXroEsULhg1FVdgYMH320Qu1sub1OjXKORRjZqTItAsyYqIYgGFD8Y7TaBSVklMcMuMSryy4u0AFxsDDk9WpngekDVywd+fYeelyyV35MufGbFadEUUJjmwoKkc2XcFoZ89Gvd0MjibwN7dLkjNBnY2TN8wpg8e5xOWJzfsnjmwo3nFkQzEDo53hR6doI5cMtSnzlKsy5YRLvTJtfoYKyFgNGqL+gK9OIiKyHKfRSJUWv/33qsBHoQPDKHKMTtRw8tXeHjUJJYolDBuSt/5WKZuWNQQ+IrvNWJAhR53FLgcUXxg2JHUVrfKf/92nHqdkOMTp5sZHW2ivRO+AJDn9O9ni5voTxRmGDRERWY63T0REZDmGDRERWY5hQ0RElmPYEBGR5Rg2RERkOYYNERFZjmFDRESWY9gQEZHlGDZERGQ5hg0REVmOYUNERJZj2BARkeUYNkREZDmGDRERWY5hQ0RElmPYEBGR5Rg2RERkOYYNERFZjmFDRESWY9gQEZHlGDZERGQ5hg0REVmOYUNERJZj2BARkeUYNkREZDmGDRERWY5hQ0RElmPYEBGR5Rg2RERkOYYNERFZTOT/AfxAJKsVDo5oAAAAAElFTkSuQmCC;" parent="SspjGxPzmLwflcgw0knG-3" vertex="1">
          <mxGeometry x="13" y="95.00000000000001" width="104.4" height="60.2" as="geometry" />
        </mxCell>
        <mxCell id="SspjGxPzmLwflcgw0knG-5" value="Example: recursion stack" style="text;html=1;align=center;verticalAlign=middle;resizable=0;points=[];autosize=1;strokeColor=none;fillColor=none;" parent="SspjGxPzmLwflcgw0knG-3" vertex="1">
          <mxGeometry x="13" y="169" width="152" height="26" as="geometry" />
        </mxCell>
        <mxCell id="SspjGxPzmLwflcgw0knG-6" value="Operations" style="swimlane;whiteSpace=wrap;html=1;fillColor=#b1ddf0;strokeColor=#10739e;" parent="1" vertex="1">
          <mxGeometry x="-942" y="-532" width="258" height="102" as="geometry" />
        </mxCell>
        <mxCell id="SspjGxPzmLwflcgw0knG-7" value="&lt;b&gt;Push&lt;span style=&quot;white-space: pre;&quot;&gt;&#x9;&lt;/span&gt;&lt;span style=&quot;white-space: pre;&quot;&gt;&#x9;&lt;/span&gt;&lt;/b&gt;Add element at top&lt;br&gt;&lt;b&gt;Pop&lt;span style=&quot;white-space: pre;&quot;&gt;&#x9;&lt;/span&gt;&lt;span style=&quot;white-space: pre;&quot;&gt;&#x9;&lt;/span&gt;&lt;span style=&quot;white-space: pre;&quot;&gt;&#x9;&lt;/span&gt;&lt;/b&gt;Removing element from top&lt;br&gt;&lt;b&gt;Peek&lt;/b&gt;/&lt;b&gt;Top&lt;span style=&quot;white-space: pre;&quot;&gt;&#x9;&lt;/span&gt;&lt;/b&gt;Accessing top element&lt;br&gt;&lt;b&gt;Size&lt;span style=&quot;white-space: pre;&quot;&gt;&#x9;&lt;/span&gt;&lt;span style=&quot;white-space: pre;&quot;&gt;&#x9;&lt;/span&gt;&lt;span style=&quot;white-space: pre;&quot;&gt;&#x9;&lt;/span&gt;&lt;/b&gt;Length of stack&lt;br&gt;" style="text;html=1;align=left;verticalAlign=middle;resizable=0;points=[];autosize=1;strokeColor=none;fillColor=none;" parent="SspjGxPzmLwflcgw0knG-6" vertex="1">
          <mxGeometry x="13" y="31" width="245" height="70" as="geometry" />
        </mxCell>
        <mxCell id="paEM04nc0d6yQ9ku6Cox-1" value="Implementation by dynamic array" style="swimlane;whiteSpace=wrap;html=1;fillColor=#b1ddf0;strokeColor=#10739e;" parent="1" vertex="1">
          <mxGeometry x="-942" y="-403" width="274" height="289" as="geometry" />
        </mxCell>
        <mxCell id="paEM04nc0d6yQ9ku6Cox-2" value="" style="shape=image;verticalLabelPosition=bottom;labelBackgroundColor=default;verticalAlign=top;aspect=fixed;imageAspect=0;image=data:image/png,iVBORw0KGgoAAAANSUhEUgAAAe0AAABXCAYAAAApkh1cAAAAAXNSR0IArs4c6QAAAARnQU1BAACxjwv8YQUAAAAJcEhZcwAAEnQAABJ0Ad5mH3gAABU7SURBVHhe7d0JeBXV2QfwN/sKWUmAJCQsSdiCbAIhIoJCUXYUBRVRK/pZStX2QymofFUQ7UP9qEXrhgq4W0GQSCFUFAk7shjAsIQACUlMCElIQnY659wzyZD1XjMDc+79/54nT84cYvvOnbnzzjlz5hynKwoCAAAA03MWvwEAAMDkkLQBAAAkgaQNAAAgCSRtAAAASSBpAwAASAJJGwAAQBJI2gAAAJJA0gYAAJAEkjYAAIAkkLQBAAAkgaQNAAAgiQZzjy9dupSWL19ONTU1okYe586dEyWiiIgIUZKHNv7w8HBycnISW+ZkT5+3jPGr7Ok4hIWFkbMz2hLgWCZPnkzLli2z6prfIGn7+flRUVGR2AIAAACj5ebmUnBwsNhqWoOk7evrSyUlJTx59+zZU9TKYefOnaJENHDgQHJzcxNbctDGHxISQl27dhVb5qSNNz4+XpTkIXv8Ku1+xMXF8e+wTLTx+/v7U48ePcQWgH1LS0ujnJwcXs7OzqbQ0FBebhZL2lo+Pj4siV+54447RI08Zs2axWNnPwUFBaJWHi+++GJt/IcPHxa15qUkCB5r9+7dRY1cxo4dy+P39vYWNXKaPXt27XmjXABErTxeeeWV2vj37dsnagHs35w5c2rPfSVpi9rm2dXDI+XiK0pEpaWloiQP2eJX45Xxs2a08SvfBV6WEc57AMdhV0nby8tLlOT88ssWvxqvrBda7eddVlYmSvLBeQ/gOOy2pX358mVRkods8avxyvhZM7KfLyqc9wCOA93jJiJb/Gq8LFYZu5dlP19UOO8BHAeStonIFr8aL0vY5eXlvCwTe0kWOO8BHAeeaZuIbPHj8zYHHAcAx4Fn2iYiW/z4vM0BxwHAcaB73ERkix+ftzngOAA4DiRtE5Etfnze5oDjAOA48EzbRGSLH5+3OeA4ADgOPNM2Ednix+dtDjgOAI4D3ePNYK8ynSkppF15mZScm0GXKivEvxhD7/iNJlu89ckev0r2/UBLG8B6SNpN+HdWGg3dsorilZ8pyWto6o611G/Te7RJqTeKu7t77VrCMly8kLTNQfb9YOe8p6cnL8t8HACuBSTtRrxz6iA9vCeRzpReva54aXUlPfFjEl2sMGaearYAuroPMly88CzVHOzh5kOm8x7gerKrpK3HRbiospxePmZZ39fD2YXu6dSDXu5zC90f2ZvXFVVV0JqMVF42groPMly8ZE8W9pDsGO15L+szYZnOe4Dr6Zol7cvVVZRReokqaqpFjf48PDx4a5X5tRevU8UXeazM76L70//3u40e6BzHy6pMZT+MoiYSa+M/XpRPb5zYT+cvF4ualv1UkEuv/ryHnj64lWbt/YZePrqTEs+fpBLlhsQW2qSHAVDXD+teZuc+I2vSs/W8B3BUhibt8upqevvkAbppy2rquuGfNCjpA+r89RsUn7SSliuJpqqmRvylPvToXi6oqJtDO9yrrSgRZWmSooeLqyjpz5b42efHnrUvOrqD5h3aKmqbxgbUTd7+Jf3m+09paepu+vBMipKsT9FrJ/YpyXsjDdz8Ab2uHJdKK2+stElPxmQhe/xarT3vrzfZ4we4VgxL2mVKa5UliP87sp3SSgpELRFbC+pMaRG9pCSaJw8kWSp11Novf7c2AaKk3PVXV4oS0frME6JENDI0UpT0Z0v86SWFlFtu+bstOen8d2NYCzpi/XI+oG73hfOi1sLT2UWUiAory2mxclwe3J1oVatb9mfCssevhaQN4BgMS9pfnDtGBwtyeJk9G74tNIoe7tyHxrTvQj6ubrx+TcZx3mWup9Z++SO829IbA35Df4geSNMje/E6FuNnZ4/yckdPXxoQ0J6XjWBL/GdKC0Wpef9QWs/VmqUzb24XQeuH3UVnxv+OTo17nLbfOoPmdh9ce1y2/nKGpu9Y12JPiBorI+PF1s3NjVxdLb0msicL9VjI2r2MpA1gHcOSdlpxXUJZe9OdtGrIeFrUZzi9N3gsva4kRdWmbH1fodJjQMuk8Bia1zOevFxceRf/o3s3UpnoMh7aLpxOXMo37J1tW+IPdq9rKTZnnXJzpPWQcvM0MLADuSk3U+yRQhdff3oqdhAl3TKdIpWbFmbfxWxafmIfLzdF9qTN2EuykH0gl+zxA1wrhiVty3AwizZu7qJkEaRJNqwbXU96tjhyy0qp84Y3ansMmH+d+5lGbP2Yem18h3675xvKKSsR/6IPW+K/ISCUokV3PuvNaEpu+dX/W9pWt1aUjx99kTC5tsX9aupeKmjm9TZt0pa9hSf7ACjZbz7U+MvKyqhG57EuAPbEsKStHSUe4G6ZOEGVrnnG3dHLV5T0odfF61hRHg39zyqx1VDVlRramHWKxm/7gjIv69fFr8ZfWVnJf1rS1ceStJ3FqPn6qpU42fvlqr/eMIJu79BFbDUUrrS0/6i0uhm2j809K7eH7mXZk53KXpI2wxI3ADTOsKQd5t1GlIgOF+SKksXq9BRRYs9XO4mSPvS6eCVlp1NJ1dVJk72z/VyvBPrf2MEU0yaQ12UoCZu9MqUX7cVLj9ZfhabVMiU8hu6P6l37WlxTJobFiBJRcl6GKDUO3bLmYE9JW/ZjAWAkw5J2QnC4KBHtza8bscxap3vys3h5WLsICvKo6yrXg14XL5bgRoREKgksmtYkTKHMCb/n72w/3q0//bH7IPrm5rsp1NOH/+2XGamUWnSBl1vL1osXa0kzTbW0CzXd29rHEs0J8aiLgT3Tb469JAvZE4W6H7J2L9t63gM4KsOSdh//ED6T2JTwWJreyTIKmy2+8YzmfeJ5PYaIkn7UlhPrWq6q+vXPy1k38UfxE+ifA8fQkOCwBq1Tb1c3+nOPeLFFtE7zSlhrqPEz1ly8qsTz6abazpc0r27Vf0zRlNOaxxct3VQhaZuD9ryRsXvZ1vMewFEZlrQZNpPY8gGjlQTYhs/YNTV5LeWJQVGPdLmB+hnw6pT2jt3owUXjOnZTPkBLujxalMd/t5at8ast7ZrGx5ZdNcrdtZnBalrad9K1PSaNUePFQLTrS3veyJj0ruX3tilsVb/169fTli1bRA2A+RiatFVsFPbdSsJmz38Z1i0+v+dQXtbbtbx4sda2OpAu24ZpRJtja/zqSPDymsZ7FVw0PQR5YiKW5uy6kEl/P2551ctX2b+Wkrbsz4S18bOLtqzsKWlfr/hXrlxJEydOpFGjRtGRI0dELYC5GJ602fSfdyavqZ0VbVBgB3p/0FjyNGgqUFu//GxWsT/8mMTn3rYVa+WqiTBQp2fztsbvLT5Hlrwbmwwltm0QuYvlPrdkpzf5fnmN8t+vSDtE97JJVUTrfWHvYQ1e16tPjVfGRMGo8bPnwBUVxrx7fy1ozxsZew1sPe+NMGfOHFEiOnv2rChZh8V84MABysqyjNcBMIqhSZs9w560/Us6WXyRb7Pn3KuHTOAt1PpY0mBd6Mm5GfTRmSNKa28vXwjj68wTNs1RbuuX/62TB/i714/v20T787NFrXX2XsiqnXSlt187/ru1bI2/rZtloQimsdY2uzka3zGal9mN053JX9Lm7NP8sy6tquS/N2SepLuUG6vnftpWuz8PRPWm+8SMcM1R45U9aTOy7gMj+36YIf577rlHlIj6969bIKglq1atouDgYP7f9O7d2+bEvWfPHvrwww+puoVBnwCMYUmbzRrGEvY5sSb1jUoL+7Ohk2pbbqw7mSWLF1K28znKYxLfooGb3+cLYMw9+C29cmwXXwjjsX3/picPWP+MydYBLf0DQvlv1rqcosTB/n+t6eo+eDGHntLEpdd85LbGH6gZXKZ9vUtrcZ/hyk1FMC+nFObRg7s38M+6W+Kb/Pej+zbSLjEnuauTMy3sdRO91OcWvt0SbdKWsXvZXpK27AO5zBD/u+++Sxs2bKDU1FQKDbVcF6yRlJRU27tRUFBARUVXr8PfHPa3rDt+xowZtHTpUlHbPHZTMGvWLEpMTBQ14EgMSdophbk8EauzhbFn2M/2SqC1Gak0W2nR3rj5A+ovksWbpw7wRSy0E4DUpx3N3BLtRdiabsIpEbF0Z3gsL1cqiZu18G9M+oAvWfnOqYP0n5x0OqQk6CPKPu3Iy+BLWrJW6R3bPucLnzC3d+hKQ4LCeLm1bI1/RlQcDQ7qSE/E3Njk6HDWGv84fiKNCo0SNY27KTicNtw8lR7r1q/JV8jqUy+2rHvZmslgzEabLGTsVlbJfvNh63lvlLFjx1JMTN08BdZYuHAhTZ8+nebNm0fbtm2j2FjL9cQa7u7utd+b3Nyr57NoyvPPP89vMKZOnSr1OAz4dXRP2qxLfNqOryhf837w9txzNPGHf9H8w9/T2szjjc4g1sm7LV9UhL0H/WrfW2nl4HH8laslSovvzYFjxF+1zNaLl4vSsvx7/1F8gRDWymTY82G2ZOXClB9oxq6v6XYlQY/67lMlWa/lS1ruyMvkf8eMbt+Z/tZ3pNhqPVvjZ6uSsbndn2nh9blgD29aOWQ8bR1xLx8E+D9d+/HJYh7sHEeL44bT9yPvo88TJvNHGLawp2QhY/wqsyS9X0vm49CtWzf6+OOPacmSJZSQkCBqrePp6UmbNm2iBQsW0Pz580Vt8yZNmsQ/L3aj0NJESWB/dE/abLYzbcJm6t8LspW0WOuWTam5afg0vtLUrlEz+aIibMaxaZE9aZSSDNnkJjOVpML+3lq/5svPWpVsgZA9SgyzlZuGzj5+4l+aFufXjpb1u40PqvO38v1naxh98WID034fPYCe730TnyyGdYM/1KUPRYsZ3mwl88WWkT1+FY6DvIYNG0aLFi2iwEDrvoOsN6C4uJhWrFghasCR6J60WVetFptdi3W7sveyWYt5/+iHaLeSHP8xYDSfUjPOvx1fTUsvrfnyt/fypQXKTUPybQ/QT2MeodXKTQSbIIa1Yp/uPpi3+t9S9uFHZR823TKN7lZaqnrf6cp28UKyMAccB8eCFrbj0j1psxbyTiXpfT1sKh2741E6OOa3vNv1hbibaUJYNHXQeYGQ+vQa0MJmArs1NIpPEMOeFz8ZO4i3+scr+8CSu1FkG1AkW7z1yR6/CscBwDHonrSZSB8/GhDYnvw0ryNdK9o7dtmf7ckQPz5vc8BxAHAMhiTt60n75Zfxjl22+PF5mwOOA4BjQNI2Gdnix+dtDrLvB7rHAayDpG0yHh4etYNMZIgfSdscZN8PFxcXfu4zMh8HAKPZXdKW/Y6dJWx1H2SIHwOgzMEe9kOm8x7gerHrlrasA1rUfZAhftk/b3s4Xxht0sZ5D2C/7C5psxmGVLLesasXLxni1yY9GT9v2eNXubq68ikxGZz3APbL6Uq9yWt9fX2ppKSEhg4dSsuWLRO1chk0aBD/HRISwhcAkI0aP8NWADKzw4cP0yOPPMLLEyZMoGeffZaXZcEWeBg9ejQv9+3bl95++21elpF63vj7+9PmzZt5WSYynfcAemCLxHz++ee8nJ2dbdVCNU0mbQAAALg2rE3aDbrHO3a8ehpSAAAAMA5rLLMfazRoaaelpdFXX33Fl1qUVWZmJq1bt46vghMQECBq5cG6bD/66COaOHEihYeHi1rz2r9/Px06dIhmzpzJX92RzfHjx+nbb7/l8WsHdMmGrbO8Zs0amjZtGgUFBYlaebC1pVevXk3jxo2jyEh91qcHMDv2xtDIkSOpX79+oqZ5DZI2AAAAmJPdjR4HAACwV0jaAAAAkkDSBgAAkASSNgAAgCSQtAEAACSBpA0AACAJJG0AAABJGJa02evfV6qq+e/yjFy6tOdnKj2eQdUlZeIv5FJTXkn5ibupPDNP1MirpqyCys/+QtXFWE0JAEAmhkyuUn7+Ap3+01tUlpYlauo4ubtSwJgbqePsCeTqb920bWaQuWwN5X6ylVx8vahX4iJy9rSsqCSLK9U1dDFpP+V9sY1Kj50lUraZNoO7U+QLM6U6FgAAjkr3pH2lpoYOxT8htprmFhpAXf72GHlFh4kac0sZu4Cq8op4uee6v5B7+0BelgFL2Onz36PC7w6Jmqt5xYZTzMqn+XR6AABgXrp3jxf9kCJKdbxiwqnjk1MoaHICOXtZWqiVORfp9Ny3qapQjhXF1ITNyBKzqmjn0dqE7eTqwlvX7e4bSZ7ihulyagZVZMjf7Q8AYO90T9qsC1blERVKsR/Oo9jVz1DI9BEUMW8a9UpcTL79u/F/r8jKp19WJfGy2bVN6CVKyn5FhIiSHIr3pooSUcwHc6nra7Opw+Pja7vIGWcfT1ECAACz0j1pl6akWwrOTtT90wUNur9dlOQQufhhcg1uy7cvfL2Ld6mbnUenukR9paJSlOTgpHn+7iY+96zX19eOOfAdGEOuAXimDQBgdronbfURuU9c5yafkboFtiG/YXG8XF1YQlUXLvGymWkHnlXmmz9erXZ3D6fACfEU9qe7lOTchvK+SuaD6hjWXR4+dyqeZwMASED3pK2OQi7PyOOvfDVFmwRrLpeLknmpz+KZqgt1z7dl4BbUljotuJeCp95MOau3UMaST8W/EHVaOIM8o9qLLQAAMDPdkzZrYTMssZ1b8glVFZXy7frYe9uMk4cbuYX487KZaV+JqpQsaTPsnWw2gjxr+TpLhdKyjnjuPgoYPcCyDQAApqd70g6ZcVvtoKb8Dbvp6KSFdF5JFJf2pvKJSUqOpFPma2up7JTleWrbIT2keOdZe2NRJVn3OJvUJvWBv1LhtwctFS7O/N3soHFDLNsAACAFQyZXKT50ik7PfYc/r26Wkjyi33mKfHpFiQrzupyWRanTX+LlkPtvpY5zJvGy2eVv3EPnFn9CVyqr+LZ7WDBFLX6IvHt04ttM9eVyfiPCjhefxa66hq7UKKdFdTU5e3uST2/zHx8AAEdgSNJmKnMLKfez7+jC2uRGp8t08feliHn3kP+IvqLG3Ng+/HTr07zMZnSL/MsDvGxmBVsPUvq8FWLLwm9kX7pSXklVF4uVn0t8UB3bbk7EgnspaEK82AIAgOvFsKStqi4tp9KU03T55HmeyF0D25BnZCj5Dojmr3/J5Mi4Z/k+BN05jCKevlvUmtfpP6+o6xJvBdarwHoXAADg+jI8adsTtvBJUfIRChw7mM9BbnaF21PozIL3+QIh9bE54Nmoclflh/9WbqbY62DOHm7k5Oai/Ljy18Fc/XzIb8QN5OSs+/AHAACwEZK2nWPd+hU5F3nidvH2JJe23vyGgyVnAACQC5I2AACAJNDnCQAAIAWi/wKdD6YATd1Y0wAAAABJRU5ErkJggg==;" parent="paEM04nc0d6yQ9ku6Cox-1" vertex="1">
          <mxGeometry x="9" y="38" width="155.31" height="27.41" as="geometry" />
        </mxCell>
        <mxCell id="paEM04nc0d6yQ9ku6Cox-3" value="t = -1&lt;br&gt;&lt;br&gt;void push(x){&lt;br&gt;&lt;span style=&quot;white-space: pre;&quot;&gt;&#x9;&lt;/span&gt;t = t+1&lt;br&gt;&lt;span style=&quot;white-space: pre;&quot;&gt;&#x9;&lt;/span&gt;A[t] = x&lt;br&gt;}&lt;br&gt;&lt;br&gt;int pop(){&lt;br&gt;&lt;span style=&quot;white-space: pre;&quot;&gt;&#x9;&lt;/span&gt;if(t==-1) return -1&lt;br&gt;&lt;span style=&quot;white-space: pre;&quot;&gt;&#x9;&lt;/span&gt;k = A[t]&lt;br&gt;&lt;span style=&quot;white-space: pre;&quot;&gt;&#x9;&lt;/span&gt;t = t-1&lt;br&gt;&lt;span style=&quot;white-space: pre;&quot;&gt;&#x9;&lt;/span&gt;return k&lt;br&gt;}" style="text;html=1;align=left;verticalAlign=middle;resizable=0;points=[];autosize=1;strokeColor=none;fillColor=none;" parent="paEM04nc0d6yQ9ku6Cox-1" vertex="1">
          <mxGeometry x="9" y="76" width="135" height="199" as="geometry" />
        </mxCell>
        <mxCell id="paEM04nc0d6yQ9ku6Cox-4" value="int peek(){&lt;br&gt;&lt;span style=&quot;white-space: pre;&quot;&gt;&#x9;&lt;/span&gt;if(t==-1) return -1&lt;br&gt;&lt;span style=&quot;white-space: pre;&quot;&gt;&#x9;&lt;/span&gt;else return A[t]&lt;br&gt;}&lt;br&gt;&lt;br&gt;int size(){&lt;br&gt;&lt;span style=&quot;white-space: pre;&quot;&gt;&#x9;&lt;/span&gt;return t+1&lt;br&gt;}" style="text;html=1;align=left;verticalAlign=middle;resizable=0;points=[];autosize=1;strokeColor=none;fillColor=none;" parent="paEM04nc0d6yQ9ku6Cox-1" vertex="1">
          <mxGeometry x="147" y="108" width="135" height="127" as="geometry" />
        </mxCell>
        <mxCell id="paEM04nc0d6yQ9ku6Cox-5" value="All operation take O(1) TC" style="text;html=1;align=center;verticalAlign=middle;resizable=0;points=[];autosize=1;strokeColor=none;fillColor=none;" parent="paEM04nc0d6yQ9ku6Cox-1" vertex="1">
          <mxGeometry x="107" y="256" width="157" height="26" as="geometry" />
        </mxCell>
        <mxCell id="paEM04nc0d6yQ9ku6Cox-8" value="Other way of implementation is by using linked list" style="text;html=1;align=center;verticalAlign=middle;resizable=0;points=[];autosize=1;strokeColor=#666666;fillColor=none;fontColor=#333333;" parent="1" vertex="1">
          <mxGeometry x="-942" y="-92" width="283" height="26" as="geometry" />
        </mxCell>
      </root>
    </mxGraphModel>
  </diagram>
</mxfile>
